# WaveFront *.obj file (generated by Autodesk ATF)

mtllib LevoitMiniSmart - ButtonHolder2.mtl

g LevoitMiniSmart - ButtonHolder2

v 13.199019 3.284188 -0.480019
v 14.731108 1.998613 1.519981
v 22.444560 11.191146 1.519981
v 20.912471 12.476721 -0.480019
v 8.655759 22.761323 -0.480019
v 0.942308 13.568790 -0.480019
v -0.589781 14.854365 1.519981
v 7.123671 24.046898 1.519981
v 24.663509 9.329226 -1.541154
v 24.663509 9.329226 -3.496633
v 4.904721 25.908818 -3.496633
v 4.904721 25.908818 -1.541154
v 14.731108 1.998613 -3.496633
v 12.159958 -1.065565 -3.496633
v 12.159958 -1.065565 1.519981
v 14.378908 -2.927485 -3.496633
v 14.378908 -2.927485 -1.541154
v -0.589780 14.854365 -3.496633
v -3.160931 11.790187 1.519981
v -3.160931 11.790187 -3.496633
v -5.379881 13.652107 -3.496633
v -5.379881 13.652107 -1.541154
vt -0.427788 -0.443844 0.000000
vt -0.184540 -0.588171 0.000000
vt 0.184540 0.588171 0.000000
vt 0.427788 0.443844 0.000000
vt 1.378880 -1.157018 0.000000
vt 2.150225 -0.237764 0.000000
vt 0.153209 -0.128558 0.000000
vt 0.924554 0.790696 0.000000
vt -0.121624 0.072164 0.000000
vt 0.121624 -0.072164 0.000000
vt 0.490704 1.104178 0.000000
vt 0.733952 0.959851 0.000000
vt 0.050831 1.444832 0.000000
vt -0.250831 -0.644832 0.000000
vt 0.050831 -0.155168 0.000000
vt -0.055283 -0.644832 0.000000
vt 0.250831 -0.355168 0.000000
vt 0.250831 1.644832 0.000000
vt -0.055283 1.934495 0.000000
vt -0.250831 1.934495 0.000000
vt -0.000000 -0.000000 0.000000
vt -0.000000 0.400000 0.000000
vt -0.501661 -0.000000 0.000000
vt -0.501661 0.400000 0.000000
vt -0.250831 -0.144832 0.000000
vt -0.055283 -0.144832 0.000000
vt -0.250831 0.144832 0.000000
vt 0.250831 0.144832 0.000000
vt -0.421438 1.200000 0.000000
vt -0.421438 -0.000000 0.000000
vt 0.000000 1.200000 0.000000
vt 0.000000 -0.400000 0.000000
vt -0.421438 -0.400000 0.000000
vt -0.195548 -0.400000 0.000000
vt -0.000000 -0.400000 0.000000
vt -0.195548 1.200000 0.000000
vt -0.000000 1.200000 0.000000
vt 0.000000 -0.000000 0.000000
vt 0.501661 -0.000000 0.000000
vt 0.000000 0.400000 0.000000
vt 0.501661 0.400000 0.000000
vt 0.250831 -0.144832 0.000000
vt 0.250831 0.144832 0.000000
vt 0.055283 -0.144832 0.000000
vt -0.250831 0.144832 0.000000
vt 0.421438 1.200000 0.000000
vt -0.000000 1.200000 0.000000
vt 0.421438 -0.000000 0.000000
vt -0.000000 -0.400000 0.000000
vt 0.421438 -0.400000 0.000000
vt 0.195548 1.200000 0.000000
vt 0.000000 1.200000 0.000000
vt 0.195548 -0.400000 0.000000
vt 0.000000 -0.400000 0.000000
vt 1.000000 -0.400000 0.000000
vt 1.289663 -0.400000 0.000000
vt 1.000000 -0.000000 0.000000
vt 1.289663 1.200000 0.000000
vt -1.289663 1.200000 0.000000
vt -1.000000 0.000000 0.000000
vt -1.289663 -0.400000 0.000000
vt -1.000000 -0.400000 0.000000
vt 1.644832 0.250831 0.000000
vt 1.444832 0.050831 0.000000
vt 1.644832 -0.250831 0.000000
vt -0.155168 0.050831 0.000000
vt -0.355168 -0.250831 0.000000
vt -0.355168 0.250831 0.000000
vn -0.054168 0.045452 0.070711
vn -0.054168 0.045452 0.070711
vn -0.054168 0.045452 0.070711
vn -0.054168 0.045452 0.070711
vn 0.000000 0.000000 0.100000
vn 0.000000 0.000000 0.100000
vn 0.000000 0.000000 0.100000
vn 0.000000 0.000000 0.100000
vn 0.054168 -0.045452 0.070711
vn 0.054168 -0.045452 0.070711
vn 0.054168 -0.045452 0.070711
vn 0.054168 -0.045452 0.070711
vn 0.064279 0.076604 0.000000
vn 0.064279 0.076604 0.000000
vn 0.064279 0.076604 0.000000
vn 0.064279 0.076604 0.000000
vn 0.064279 0.076604 0.000000
vn 0.064279 0.076604 0.000000
vn 0.064279 0.076604 0.000000
vn 0.064279 0.076604 0.000000
vn -0.076604 0.064279 0.000000
vn -0.076604 0.064279 0.000000
vn -0.076604 0.064279 0.000000
vn -0.076604 0.064279 0.000000
vn -0.064279 -0.076604 0.000000
vn -0.064279 -0.076604 0.000000
vn -0.064279 -0.076604 0.000000
vn -0.064279 -0.076604 0.000000
vn 0.055642 -0.046689 0.068732
vn 0.055642 -0.046689 0.068732
vn 0.055642 -0.046689 0.068732
vn 0.055642 -0.046689 0.068732
vn 0.055642 -0.046689 0.068732
vn 0.076604 -0.064279 0.000000
vn 0.076604 -0.064279 0.000000
vn 0.076604 -0.064279 0.000000
vn 0.076604 -0.064279 0.000000
vn 0.076604 -0.064279 0.000000
vn 0.076604 -0.064279 0.000000
vn 0.076604 -0.064279 0.000000
vn 0.076604 -0.064279 0.000000
vn -0.064279 -0.076604 0.000000
vn -0.064279 -0.076604 0.000000
vn -0.064279 -0.076604 0.000000
vn -0.064279 -0.076604 0.000000
vn -0.055642 0.046689 0.068732
vn -0.055642 0.046689 0.068732
vn -0.055642 0.046689 0.068732
vn -0.055642 0.046689 0.068732
vn -0.055642 0.046689 0.068732
vn -0.076604 0.064279 0.000000
vn -0.076604 0.064279 0.000000
vn -0.076604 0.064279 0.000000
vn -0.076604 0.064279 0.000000
vn 0.000000 0.000000 -0.100000
vn 0.000000 0.000000 -0.100000
vn 0.000000 0.000000 -0.100000
vn 0.000000 0.000000 -0.100000
vn 0.000000 0.000000 -0.100000
vn 0.000000 0.000000 -0.100000
vn 0.000000 0.000000 -0.100000
vn 0.000000 0.000000 -0.100000
vn -0.064279 -0.076604 0.000000
vn -0.064279 -0.076604 0.000000
vn -0.064279 -0.076604 0.000000
vn -0.064279 -0.076604 0.000000
vn -0.064279 -0.076604 0.000000
vn -0.064279 -0.076604 0.000000
usemtl Steel_-_Satin
f 1/1/1 2/2/2 4/3/3
f 4/3/3 2/2/2 3/4/4
f 1/5/5 4/6/6 6/7/7
f 6/7/7 4/6/6 5/8/8
f 7/9/9 6/10/10 8/11/11
f 8/11/11 6/10/10 5/12/12
f 4/13/13 11/14/14 5/15/15
f 5/15/15 11/14/14 12/16/16
f 5/15/15 12/16/16 8/17/17
f 3/18/18 9/19/19 4/13/13
f 4/13/13 9/19/19 11/14/14
f 9/19/19 10/20/20 11/14/14
f 13/21/21 14/22/22 2/23/23
f 2/23/23 14/22/22 15/24/24
f 16/25/25 17/26/26 14/27/27
f 14/27/27 17/26/26 15/28/28
f 3/29/29 2/30/30 9/31/31
f 9/31/31 2/30/30 17/32/32
f 17/32/32 2/30/30 15/33/33
f 17/34/34 16/35/35 9/36/36
f 9/36/36 16/35/35 10/37/37
f 18/38/38 7/39/39 20/40/40
f 20/40/40 7/39/39 19/41/41
f 21/42/42 20/43/43 22/44/44
f 22/44/44 20/43/43 19/45/45
f 8/46/46 12/47/47 7/48/48
f 7/48/48 12/47/47 22/49/49
f 7/48/48 22/49/49 19/50/50
f 12/51/51 11/52/52 22/53/53
f 22/53/53 11/52/52 21/54/54
f 20/55/55 21/56/56 18/57/57
f 18/57/57 21/56/56 11/58/58
f 18/57/57 11/58/58 10/59/59
f 18/57/57 10/59/59 13/60/60
f 13/60/60 10/59/59 16/61/61
f 13/60/60 16/61/61 14/62/62
f 2/63/63 1/64/64 13/65/65
f 13/65/65 1/64/64 6/66/66
f 13/65/65 6/66/66 18/67/67
f 18/67/67 6/66/66 7/68/68
# 22 vertices
# 68 texture params
# 68 normals
# 40 facets

# 1 groups
